<?xml version="1.0" encoding="utf-8"?>
<!-- Generator: Adobe Illustrator 27.3.1, SVG Export Plug-In . SVG Version: 6.00 Build 0)  -->
<svg version="1.1" id="Layer_1" xmlns="http://www.w3.org/2000/svg" xmlns:xlink="http://www.w3.org/1999/xlink" x="0px" y="0px"
	 viewBox="0 0 512 512" style="enable-background:new 0 0 512 512;" xml:space="preserve">
<style type="text/css">
	.st0{fill:#FFFFFF;}
	.st1{fill:none;stroke:#FFFFFF;stroke-width:5.2979;stroke-miterlimit:10;}
	.st2{fill:#FFFFFF;stroke:#FFFFFF;stroke-width:2.6489;stroke-miterlimit:10;}
	.st3{fill:#FFFFFF;stroke:#FFFFFF;stroke-width:5.2979;stroke-miterlimit:10;}
	.st4{opacity:0.3;fill:#FFFFFF;}
</style>
<g>
	<rect x="245.7" y="116.5" class="st0" width="116.6" height="45"/>
	<path class="st1" d="M90.5,408.9c0,0-2.2-2.3,2.2,1.1c4.4,3.4,4.4,3.4,4.4,3.4h12.1h45.2h299v3.4l-1.1,4.5l-2.2,2.3l-3.3,2.3
		l-3.3,2.3h-9.9H99.3l-3.3-2.3l-3.3-3.4l-2.2-3.4l-1.1-3.4v-6.8H90.5z"/>
	<polygon class="st2" points="146.8,163.9 144.5,163.9 143.4,165.1 141.2,166.2 140.1,169.6 136.8,178.6 134.6,192.1 131.3,210.2 
		128,229.4 121.4,272.3 104.8,362.6 99.3,386.3 98.2,395.3 98.2,401 100.4,405.5 107,411.1 93.8,411.1 90.5,410 88.3,406.6 
		86.1,403.2 86.1,390.8 89.4,372.7 93.8,342.3 100.4,303.9 114.8,224.9 123.6,175.2 124.7,170.7 126.9,167.3 131.3,163.9 
		134.6,163.9 	"/>
	<polygon class="st3" points="139,165.1 132.4,170.7 129.1,184.2 125.8,206.8 111.4,287 91.6,399.8 91.6,404.3 93.8,407.7 96,410 
		99.3,412.2 105.9,413.4 123.6,413.4 203,413.4 364.1,413.4 445.8,413.4 452.4,413.4 456.8,411.1 460.1,407.7 462.4,403.2 
		463.5,395.3 470.1,359.2 475.6,328.7 489.9,250.8 502.1,175.2 499.9,170.7 497.7,168.4 493.3,165.1 489.9,163.9 141.2,163.9 	"/>
	<rect x="196.4" y="158.3" class="st0" width="183.2" height="11.3"/>
	<g>
		<path d="M224.7,317.6c1.9,0.5,3.9,0.8,5.9,1.2c1.1-0.8,2.6-1.9,4.2-2.9c2.1-1.3,4.9-1.6,4.6-5.3c-0.2-2.5,2.8-3.5,5.4-2.2
			c0.9,0.4,1.8,1.1,2.4,1.5c1.2-1.3,2.1-2.2,2.6-2.8c1.7,0.9,2.9,1.4,3.9,2.1c1.7,1.1,4.2,1.5,3.8,4.5c-0.6,4.7,4.5,7.7,3.9,12.4
			c0,0.3,0.4,0.5,0.6,0.8c1,1.5,1.1,3.1-0.8,3.9c-1.9,0.8-1.9,2.1-1.5,3.7c0.2,0.9,0,1.9,0,2.7h-5.4c0.9,1.3,1.4,2.1,2.2,3.2
			c-1.1-0.1-1.8-0.1-3.6-0.2c3.5,3.7,6.5,6.8,9.4,9.8c1.7,1.8,3.3,4,5.4,5.1c5,2.5,10.2,4.6,15.4,6.6c3.8,1.5,6.1,4.3,6.4,7.9
			c0.3,4.3,1.5,8.1,3.1,12.1c0.8,1.9,1.9,5,0.4,7.5c0.5,0,1-0.1,1.5-0.1c2.1-0.7,4.3-1.3,6.5-2c0-0.1,0-0.2,0-0.4
			c0.2,0.1,0.5,0.1,0.7,0.2c0.5-0.2,1-0.3,1.5-0.5c4.8-1.4,9.6-2.4,14.3-3.2c1.7-0.5,3.5-0.5,5.1-1c1.4-0.4,2.7-0.4,3.8-0.1
			c1.9-0.2,3.8-0.3,5.7-0.4c1.4-6.4,2.9-12.8,4.2-19.2c0.8-3.9,2-7.2,5.6-9.5c2.7,4.3,8.8,6.3,5.6,12.7c2.1-0.7,3.5-1.3,4.9-1.8
			c2.6-0.9,3.7-4.1,2.1-6.2c-1.7-2.3-3.4-4.5-5.1-6.8c1.4-0.9,2.6-1.6,3.8-2.4c-2.2-2.7-2.2-2.7-0.2-5.2c1.1-1.4,2.3-3,2.6-4.6
			c0.8-4.5,0.5-9.4,3.6-13.1c1.3-1.5,1-2.6,0.6-4.2c-0.7-2.6-0.9-5.3-1.5-8.8c4.6,4.8,8.5,9,12.2,12.8c2.1-2.8,4.1-5.4,6-7.9
			c-0.4-0.5-0.6-0.8-0.9-1c-1-0.7-3.3-0.5-2.2-2.6c0.5-0.9,2.2-1.7,3.2-1.6c3.7,0.3,7.3,1,11,1.6c-1-0.8-2-1.4-3.1-1.7
			c-9.6-2.3-18.9-5.7-29-5.3c-3.7,0.2-11.9-6.9-12.7-10.5c-0.1-0.6-0.2-1.3,0-1.8c1.1-2.8,1.8-5.8,3.4-8.2
			c4.4-6.5,9.5-12.6,13.7-19.3c5.1-8.2,8.2-17.2,9-27.1c2.3-0.8,4.8-1.5,7.5-2.4c-2-1.1-3.5-1.9-5.1-2.7c1.8-2.3,3.1-3.9,4.5-5.6
			c0.8,1,1.7,1.9,2.6,3c1.2-3.4,2.7-6.5,3.2-9.8c0.8-4.6,0.9-9.4,1.1-14.1c0.3-6.5,0.8-13,0.3-19.4c-0.4-4.7-1.1-10-7.2-11.7
			c2-8.4,4-16.6,5.8-24.8c0.6-2.8,1.4-5.8,0.9-8.4c-1.1-5.4-1.7-10.6-1.2-16.1c0.2-2.4-0.5-4.9-1-7.3c-1.3-5.5-2.7-10.9-6.9-15.1
			c-1.4-9.7-10.3-12.9-16.3-18.7c-1.2-1.2-3.1-1.6-4.4-2.7c-2-1.7-3.6-4.1-5.9-5.3c-6.8-3.5-12.6-8.2-18-13.5
			c-2.1-2-6.4-4.5-8.1-3.6c-3.5,1.7-7.1-0.1-10.2,1.7c-0.7,0.4-1.6,0.4-2.4,0.3c-9.4-1.4-18.8-3-28.2-4.2c-2.2-0.3-4.6,0.4-6.7,1.3
			c-3.7,1.6-7.1,3.9-10.8,5.5c-2.7,1.2-5.6,2-8.5,2.7c-6.8,1.6-13.8,2.4-20.2,4.7c-4.2,1.6-7.5,5.5-11.4,8.1
			c-6.8,4.7-12.7,9.7-11.5,19.3c0.2,1.9-1.1,4.8-2.6,6c-2.1,1.7-4.2,1.3-3.8,5.9c0.5,5.6-1.3,12.1-6.8,16.3c0.6,0.9,1.3,1.8,1.9,2.8
			c-0.3,0-0.5,0-0.8,0.1c-0.2,1.8-0.4,3.7-0.7,5.7c-1.2,0.1-2.8,0.1-4.7,0.2c0.7,1.8,1.2,3.2,1.7,4.8c-8.5,2.7-4.6,7.9-2,13
			c-1.8-0.3-2.9-0.5-4.8-0.8c1.1,1,1.7,1.5,2.3,2.1c-5,3.6-4.9,6.2,0.2,8.8c0.9,0.4,1.6,1.1,2.5,1.4c2.4,0.9,4.9,1.7,7.5,2.5
			c0,0.5,0.3,1.5,0,2.4c-1.9,5-0.1,8.4,4.4,10.8c0.5,0.2,0.8,1.3,0.7,1.9c-0.3,2.6-0.7,5.1-1.2,7.7c-0.7,4.2-1.5,8.4-2.3,12.5
			c0.4,0.1,0.8,0.2,1.3,0.3c0.9-1.8,1.8-3.7,2.8-5.5c-0.6,7.4-2,14.5,0.1,20.4c1-5,2.1-11.1,3.5-17c0.6-2.4,1.9-4.7,4.7-4
			c0.7,2.6,1.3,4.7,1.6,5.9c-0.9,3-1.6,5.4-2.3,7.9c0.3,0.3,0.7,0.7,1,1c3.1-0.8,6.3-1.5,10.1-2.5c0.8,5.7,1.6,11.8,2.4,17.8
			c-0.2,0.1-0.5,0.2-0.8,0.3c-1.4-1.8-2.8-3.7-4.2-5.4c-1.2,1.1-2.4,2-3.8,3.2c1,0.8,2,1.6,3,2.3c2.1,1.5,4.7,2.7,6.2,4.7
			c1,1.3,1.2,4,0.5,5.7c-0.6,1.6-2.8,2.6-4,3.7c0.9-0.3,2.1-0.7,3.7-1.2c0.6,1.8,1.1,3.3,1.8,5.2c-3.9,0.8-7.3,1.4-10.7,2.3
			c-1.6,0.4-3.5,1-4.5,2.1c-6.7,8.1-10.6,17-7,27.6c1.7,5.1,3.7,10.1,5.7,15.1c2.8,6.9,5.6,13.8,8.6,20.6
			C222.4,316.9,223.7,317.3,224.7,317.6z M329.1,285.1c-0.9,0.8-1.9,1.5-2.6,2c-1.5-0.4-2.9-0.8-4.9-1.3c0.5-0.9,0.8-2.1,1.6-2.5
			c1.5-0.8,3.3-1.3,5-1.5c0.9-0.1,2,0.5,3,0.8C330.5,283.5,329.9,284.4,329.1,285.1z M338.9,274.6c-0.6-2-0.8-2.8-1-3.8
			c-2.9,0.5-5,5.3-8.9,1.8c0.3-0.5,0.8-0.9,0.9-1.5c0.2-0.7,0.5-1.5,0.2-2.1c-0.1-0.3-1.4-0.6-1.9-0.3c-4.4,2.3-9.1,2.4-14,2.3
			c-5.7,0-11.4,1.1-17.1,1.8c-3.9,0.5-2.6,3.2-2,5.6c-1.2,0.3-2.2,0.6-4.2,1.1c4.6,2.1,8.5,3.9,12.4,5.7c0.9-0.5,2.1-1.2,3.3-1.9
			c1.4,3.7,1,4.3-1.7,6.1c-1,0.6-1.1,2.4-1.6,3.4c-2.2-0.9-4.2-1.7-6.2-2.4c-0.2-0.1-0.9,1.1-1.8,2.4c-3.1-1.7-6.6-3.5-10.2-5.5
			c-0.4,0.4-0.9,1-1.4,1.7c-1.9-1.3-1.4-5.6-4.6-4.2c-4.8-5.5-9.8-10.7-10.7-18.7c1.3-1.6,2.9-3.8,4.8-5.8c1.9-1.9,4-2.7,6.7-0.8
			c3.3,2.2,6.7,4.3,10.4,5.8c2.6,1.1,5.5,1.1,9.3,1.8c-0.7-1.4-0.9-2.7-1.6-2.9c-2.9-1-6-1.6-9-2.6c-1-0.3-1.6-1.6-2.4-2.5
			c1-0.4,2-1.1,3.1-1.2c2.8-0.3,5.7-0.3,8.6-0.3c7.3-0.1,14.6,0,21.9-0.2c2.8-0.1,5.5-0.7,8.3-1.1c0.1,0.4,0.3,0.9,0.4,1.3
			c-3.7,3.2-10.3,2.4-12.7,8.7c1.9-0.2,3.5,0,4.8-0.5c4.6-1.8,9.3-3.4,12.8-7.2c1.9-2.1,5-1.9,6.3,0.6c1.5,2.8,3,5.9,3.1,9
			C343.5,270.1,340.9,272,338.9,274.6z M299.9,235.9c0.8,0,1.6-0.1,2.4-0.1c-0.2,1.6-0.3,3.2-0.5,4.9c-0.5,0-0.9,0-1.4,0
			L299.9,235.9z M309.2,249.5c1-0.5,2.1-0.9,3.1-1.4c1.8-2.6,3.2-1.1,4.7,0.3c0,0.5,0,0.9,0.1,1.4c-2.5,0.4-4.9,0.7-7.4,1.1
			C309.5,250.3,309.4,249.9,309.2,249.5z M375.6,206.1c0.2-2.5,0.1-5,0.1-7.5c0-1.3,0.1-2.6,0.1-3.8c1.2,0.1,2.5,0,3.4,0.5
			c2.7,1.3,3.2,3.2,2.5,6.4c-0.9,3.8-0.3,7.8-0.3,11.8c0,3.2-0.9,5.8-4,7.8c-1.2-3.5-2.5-6.5-3.1-9.7
			C374.1,209.9,375.5,207.9,375.6,206.1z M375.1,221.6c2.6,2.9,1.3,4.3-1.7,5C373.9,225,374.5,223.3,375.1,221.6z M364.3,93.6
			c2.5,3,5,6,7.4,9c-0.5,0.4-1,0.8-1.5,1.2c-2.3-3.1-4.7-6.1-7-9.2C363.6,94.2,364,93.9,364.3,93.6z M338.6,180.1
			c2.2,0.1,4.5,0.3,6.7,0.4c0,0.3,0,0.5,0,0.8c-2.4,0-4.9-0.2-7.3,0.1c-2.5,0.3-4.9,1-7.5,1.1c1.4-0.6,2.7-1.2,4.4-1.9
			c-0.7-0.6-1.2-1.1-1.8-1.5c6.5-6.2,16.5-7.3,22.3-2.4c-2.1,3.1-5.5,1.4-8.2,2c-2.9,0.7-5.9,0.7-8.9,1
			C338.5,179.7,338.6,179.9,338.6,180.1z M231.9,187.6c0.1-3.1,1.2-6.8,3.1-9.2c1.4-1.7,4.9-1.8,7.4-2.7c-3.4-3.1,0.1-3.4,1.3-4.8
			c0.9-1.8,1.8-3.6,2.7-5.3c0.2-0.4,1-0.7,1-0.9c-0.6-6,5.1-8.1,7.8-12.1c2.7-4,6.1-7.7,9.7-11.1c4-3.7,6.4-2.9,8.6,2.3
			c0.5,1.2,1.3,2.3,1.7,3.5c0.3,1.1,0.3,2.3,1.2,2.7c3.1,2.7,6.2,5.5,9.3,8.2c0.2-0.1,0.4-0.2,0.6-0.4c-1.8-2.9-3.6-5.8-5.7-9
			c4.5-0.9,8.4-2.3,12.3-2.3c5.5,0,8.2-3.5,10.7-7.3c1.5-2.4,2.2-5.2,3.4-8.2c1.8,1.6,3.7,3.2,5.6,4.8l0.9-0.7
			c-1.6-2-3.2-3.9-4.8-5.8c1.3-1.6,2.3-4.2,3.7-4.4c3.1-0.5,6.3-0.4,9-2.3c0.4,0.8,1.2,1.6,1.2,2.4c0.1,3.6,0.6,7.4-0.1,10.9
			c-0.6,3.2-3.4,5-7.1,4.9c0.1,0.4,0.3,0.9,0.4,1.3c3.2-0.8,6.4-1.5,10.2-2.4c-1.2-0.6-2-1-2.6-1.3c1.3-4.2,2.6-8.1,3.8-12
			c0.3,0.4,0.6,0.7,0.8,1.1c1.1,0,2.2-0.1,3.2,0c3.6,0.3,7.2,0.5,10.6,1.2c2,0.4,2.5,1.8,0.5,3.6c-1.6,1.5-5.4,1.2-4.4,5.2
			c2.4,0.8,5,1.7,8.6,2.9c-0.9-1.9-1.3-2.9-1.9-4c0.7-0.8,1.5-1.7,2.4-2.5c1-0.8,2.5-2.1,3.1-1.9c1.2,0.6,2.5,2,2.8,3.3
			c0.7,4.4,1.1,8.9,1.4,13.3c0.2,2.7,0.2,5.4,0.2,8.2c0,0.9-0.4,1.8-0.6,3.1c-2.8-2.8-4.7-2.5-6.1,0.9c-0.2,0.5-0.8,1-1.2,1.1
			c-5.6,1.5-11.3,3.1-17,4.3c-4.4,0.9-8.7,1.5-11.3,6.1c-1.6,2.8-4.4,5-6.4,7.7c-2.2,2.9-0.6,5.8,1.1,8.3c0.3,0.4,1.8,0.2,2.7,0
			c1.8-0.4,3.6-1,5.3-1.5c0.1,0.4,0.3,0.7,0.4,1.1c-0.5,1.1-1,2.1-1.5,3.2c0.2,0.3,0.4,0.6,0.6,0.9c3.2-2.1,6.5-4.2,9.8-6.3
			c2.7,6.2,4.7,7.7,9.2,7c4.1-0.7,4.4-4.2,5.1-8.8c1.3,1.6,2.4,2.4,2.7,3.5c1.4,5.6,4.1,6.8,8.9,3.9c2.1-1.3,4.1-2.8,6.3-3.8
			c0.7-0.3,2.6,0.5,3,1.3c3.2,6.1,4.3,12.6,3.7,19.5c-0.7,8.6-4.2,16.3-6.9,24.3c-2.5,7.6-5.9,14.9-8.9,22.3
			c-0.6,1.5-1.7,2.8-2.6,4.2c-0.3-0.1-0.7-0.1-1-0.2c0-2.6,0.1-5.3,0-7.9c-0.2-5.1-2.8-7.6-7.7-8.4c-4.2-0.7-8.2-2.1-11.5-5.3
			c-1.3-1.2-3.3-1.7-5.2-2.6c3.3-1.1,4.6-3.8,3.5-7.5c-5.3-1-10-0.4-14.3,3.4c-3.6,3.1-8.6,2.8-12.6,0c-3.5-2.4-7.2-3.2-11.3-1.7
			c-1.4,0.5-3,0.5-4.5,0.8c0.7,3.8,3.7,5.6,9.3,5.6c1.4,0,2.7,0.5,4.1,0.8c-2,1.9-4.1,3.8-6,5.6c-1.8-2.9-5.2-0.7-10.2,3.7
			c-7.1-3.3-16.3,1.8-19.7,11.3c0.7-0.1,1.2-0.1,1.7-0.2c-0.2,2.4-0.2,4.9-0.7,7.3c-0.2,0.7-2,1.9-2.4,1.7c-2.2-1.2-4.9-2.4-6.2-4.3
			c-4-5.9-7.2-12.3-11.3-18.1c-4.4-6.2-8.7-12.5-10.2-20c-1-5.5-1.1-11.2-1.6-16.8C232.6,199.9,231.8,193.8,231.9,187.6z"/>
		<path d="M226.8,368.7c2.8,1.2,5.9,2.7,7.7,5c2.9,3.8,5.4,7.8,9,11c0.8,0.7,1.7,1.4,2.5,2.2c1.4,0.1,2.9,0.1,4.3,0.2
			c-0.1-0.2-0.2-0.4-0.3-0.7c0.2-0.2,0.5-0.5,0.7-0.7c1.1,0.5,2.2,1.1,3.3,1.6c7.5,0.5,15.1,1.3,22.6,2c0.5-0.7,0.2-1.4-1.6-2.4
			c-4.1-2.1-7.9-4.7-12.1-6.3c-9.6-3.5-19.5-6.2-27.3-13.3c-0.4-0.4-1.1-0.5-1.8-0.8c-0.3,0.7-0.5,1.4-0.8,2.1
			c-3.4-3.5-3.4-3.5-6.7-2.3c-2.4-3.3-4.8-6.5-7.2-9.8C218.3,361.5,222.6,366.8,226.8,368.7z"/>
		<path d="M381.4,378.4c0.1,0,0.1,0,0.2,0c-0.1-1.9-0.6-3.6-1.5-4.8c-2.3,1.6-4.8,4.6-7.3,4.7c-2.8,0.1-2.8,1.3-2.6,2.6
			C373.9,380,377.6,379.1,381.4,378.4z"/>
		<path d="M222.7,341.5c1.4,5.1,2.7,9.8,4,14.6c-4.6-0.4-8.6-4.3-8.9-8.4C217.5,344.5,219.1,342.5,222.7,341.5z"/>
		<path d="M209,226.5c2.1,3.4,8,3.6,7.9,10c-3.3-3.5-6-6.4-8.7-9.3C208.5,227,208.7,226.8,209,226.5z"/>
		<path d="M273.1,180.6c-3.8-1.8-7.8-3.3-12.2-1.7c-4.4,1.6-8.8,3.1-13,5.1c-1.9,1-3.3,3.1-4.9,4.7c-0.5,0.5-1.2,0.7-2,1.2
			c-0.2-0.7-0.6-1.3-0.4-1.5c2.5-3.1,1.6-7.3,3.3-10.5c2.2-4.3,5-8.3,7.8-12.3c1.2-1.8,3-2.1,4.4-0.1c1.5,2.3,3.3,2.9,6.2,3.4
			c7.6,1.1,15.2,0.3,22.7,1.6c3,0.5,5.8,3.4,8.4,5.5c3.8,3.1,4.1,5.1,1.9,9.3c-0.5,1-1.9,1.9-3,2.2c-2.4,0.6-5.8,0-4.7,4.3
			c0.1,0.2-1.2,1-1.8,1.1c-1.2,0.1-2.5-0.2-3.8-0.3c-0.1,0.2,0.1-0.4,0.4-1.2c-2.5-1.2-5.1-2.3-8.3-3.8c0.5,5.4-1.2,8.7-6.9,8.7
			c-3.4,0-3.9-0.1-7.1-6.8c-0.7,1.5-1.7,2.7-1.4,3.4c1.4,3.5-1.6,4.5-3.4,5.8c-1.8,1.4-3.5,0.9-4.8-1.3c-0.3-0.6-1.7-0.8-2.6-1.1
			c-3.6-1-4.2-2.9-1.9-5.9c3.8-5,9.5-5.7,15.1-6.7c4-0.7,8-1.1,12-1.6C273,181.5,273.1,181.1,273.1,180.6z"/>
		<path d="M263.8,204.2c6.4-2.2,12.7-4.4,19.3-6.7C280.2,202.8,270.4,206,263.8,204.2z"/>
		<path d="M345.9,200.1c-5,1.8-9.7,1.6-14.2-1c1.1-1.3,1.1-1.3,6.8-0.1C340.9,199.4,343.4,199.7,345.9,200.1z"/>
	</g>
	<ellipse class="st4" cx="256" cy="443.9" rx="246.6" ry="8.5"/>
</g>
</svg>
